<svg width="108" height="178" viewBox="0 0 108 178" fill="none" xmlns="http://www.w3.org/2000/svg">
<g style="mix-blend-mode:overlay">
<path d="M36.2774 122.82C36.2774 111.682 37.63 102.81 40.3351 96.2067C43.0403 89.603 47.9731 83.1186 55.1338 76.7536C62.374 70.309 67.1875 65.0977 69.5744 61.1196C71.9613 57.0619 73.1547 52.8053 73.1547 48.3498C73.1547 34.9037 66.9488 28.1807 54.5371 28.1807C48.6494 28.1807 43.9155 30.0106 40.3351 33.6705C36.8344 37.2508 35.0044 42.2235 34.8453 48.5885H0.235596C0.394721 33.392 5.28782 21.4974 14.9149 12.9046C24.6215 4.31188 37.8289 0.0155029 54.5371 0.0155029C71.4043 0.0155029 84.4924 4.11298 93.8012 12.3079C103.11 20.4233 107.764 31.9201 107.764 46.7983C107.764 53.5611 106.253 59.9659 103.229 66.0127C100.206 71.9799 94.9151 78.6233 87.3566 85.9431L77.6898 95.1326C71.643 100.941 68.182 107.743 67.3069 115.54L66.8295 122.82H36.2774ZM32.8165 159.459C32.8165 154.128 34.6066 149.752 38.1869 146.331C41.8468 142.83 46.5012 141.08 52.1502 141.08C57.7991 141.08 62.4138 142.83 65.9941 146.331C69.6539 149.752 71.4839 154.128 71.4839 159.459C71.4839 164.71 69.6937 169.046 66.1134 172.467C62.6127 175.889 57.9582 177.599 52.1502 177.599C46.3421 177.599 41.6479 175.889 38.0676 172.467C34.5668 169.046 32.8165 164.71 32.8165 159.459Z" fill="white" fill-opacity="0.4"/>
</g>
</svg>
