<svg width="157" height="170" viewBox="0 0 157 170" fill="none" xmlns="http://www.w3.org/2000/svg">
<path d="M0.813721 4.83905C0.813721 2.63608 2.60458 0.85022 4.81372 0.85022H7.06924C9.27838 0.85022 11.0692 2.63608 11.0692 4.83906V12.8517C11.0692 15.0547 9.27837 16.8405 7.06924 16.8405H4.81372C2.60458 16.8405 0.813721 15.0547 0.813721 12.8517V4.83905Z" fill="#6D6D6D"/>
<path d="M0.813721 21.8401C0.813721 19.6371 2.60458 17.8513 4.81372 17.8513H7.06924C9.27838 17.8513 11.0692 19.6372 11.0692 21.8401V29.8528C11.0692 32.0557 9.27837 33.8416 7.06924 33.8416H4.81372C2.60458 33.8416 0.813721 32.0557 0.813721 29.8528V21.8401Z" fill="#6D6D6D"/>
<path d="M0.813721 38.8412C0.813721 36.6382 2.60458 34.8524 4.81372 34.8524H7.06924C9.27838 34.8524 11.0692 36.6382 11.0692 38.8412V46.8539C11.0692 49.0568 9.27837 50.8427 7.06924 50.8427H4.81372C2.60458 50.8427 0.813721 49.0568 0.813721 46.8539V38.8412Z" fill="#6D6D6D"/>
<path d="M0.813721 55.8423C0.813721 53.6393 2.60458 51.8535 4.81372 51.8535H7.06924C9.27838 51.8535 11.0692 53.6393 11.0692 55.8423V63.8549C11.0692 66.0579 9.27837 67.8437 7.06924 67.8437H4.81372C2.60458 67.8437 0.813721 66.0579 0.813721 63.8549V55.8423Z" fill="#6D6D6D"/>
<path d="M0.813721 72.8434C0.813721 70.6404 2.60458 68.8545 4.81372 68.8545H7.06924C9.27838 68.8545 11.0692 70.6404 11.0692 72.8434V80.856C11.0692 83.059 9.27837 84.8448 7.06924 84.8448H4.81372C2.60458 84.8448 0.813721 83.059 0.813721 80.856V72.8434Z" fill="#6D6D6D"/>
<path d="M0.813721 89.8445C0.813721 87.6415 2.60458 85.8556 4.81372 85.8556H7.06924C9.27838 85.8556 11.0692 87.6415 11.0692 89.8445V97.8571C11.0692 100.06 9.27837 101.846 7.06924 101.846H4.81372C2.60458 101.846 0.813721 100.06 0.813721 97.8571V89.8445Z" fill="#6D6D6D"/>
<path d="M0.813721 106.846C0.813721 104.643 2.60458 102.857 4.81372 102.857H7.06924C9.27838 102.857 11.0692 104.643 11.0692 106.846V114.858C11.0692 117.061 9.27837 118.847 7.06924 118.847H4.81372C2.60458 118.847 0.813721 117.061 0.813721 114.858V106.846Z" fill="#6D6D6D"/>
<path d="M0.813721 123.847C0.813721 121.644 2.60458 119.858 4.81372 119.858H7.06924C9.27838 119.858 11.0692 121.644 11.0692 123.847V131.859C11.0692 134.062 9.27837 135.848 7.06924 135.848H4.81372C2.60458 135.848 0.813721 134.062 0.813721 131.859V123.847Z" fill="#6D6D6D"/>
<path d="M0.813721 140.848C0.813721 138.645 2.60458 136.859 4.81372 136.859H7.06924C9.27838 136.859 11.0692 138.645 11.0692 140.848V148.86C11.0692 151.063 9.27837 152.849 7.06924 152.849H4.81372C2.60458 152.849 0.813721 151.063 0.813721 148.86V140.848Z" fill="#6D6D6D"/>
<path d="M0.813721 157.849C0.813721 155.646 2.60458 153.86 4.81372 153.86H7.06924C9.27838 153.86 11.0692 155.646 11.0692 157.849V165.861C11.0692 168.064 9.27837 169.85 7.06924 169.85H4.81372C2.60458 169.85 0.813721 168.064 0.813721 165.861V157.849Z" fill="#6D6D6D"/>
<path d="M12.0248 4.83905C12.0248 2.63608 13.8156 0.85022 16.0248 0.85022H18.2803C20.4894 0.85022 22.2803 2.63608 22.2803 4.83906V12.8517C22.2803 15.0547 20.4894 16.8405 18.2803 16.8405H16.0248C13.8156 16.8405 12.0248 15.0547 12.0248 12.8517V4.83905Z" fill="#6D6D6D"/>
<path d="M12.0248 21.8401C12.0248 19.6371 13.8156 17.8513 16.0248 17.8513H18.2803C20.4894 17.8513 22.2803 19.6372 22.2803 21.8401V29.8528C22.2803 32.0557 20.4894 33.8416 18.2803 33.8416H16.0248C13.8156 33.8416 12.0248 32.0557 12.0248 29.8528V21.8401Z" fill="#6D6D6D"/>
<path d="M12.0248 38.8412C12.0248 36.6382 13.8156 34.8524 16.0248 34.8524H18.2803C20.4894 34.8524 22.2803 36.6382 22.2803 38.8412V46.8539C22.2803 49.0568 20.4894 50.8427 18.2803 50.8427H16.0248C13.8156 50.8427 12.0248 49.0568 12.0248 46.8539V38.8412Z" fill="#6D6D6D"/>
<path d="M12.0248 55.8423C12.0248 53.6393 13.8156 51.8535 16.0248 51.8535H18.2803C20.4894 51.8535 22.2803 53.6393 22.2803 55.8423V63.8549C22.2803 66.0579 20.4894 67.8437 18.2803 67.8437H16.0248C13.8156 67.8437 12.0248 66.0579 12.0248 63.8549V55.8423Z" fill="#6D6D6D"/>
<path d="M12.0248 72.8434C12.0248 70.6404 13.8156 68.8545 16.0248 68.8545H18.2803C20.4894 68.8545 22.2803 70.6404 22.2803 72.8434V80.856C22.2803 83.059 20.4894 84.8448 18.2803 84.8448H16.0248C13.8156 84.8448 12.0248 83.059 12.0248 80.856V72.8434Z" fill="#6D6D6D"/>
<path d="M12.0248 89.8445C12.0248 87.6415 13.8156 85.8556 16.0248 85.8556H18.2803C20.4894 85.8556 22.2803 87.6415 22.2803 89.8445V97.8571C22.2803 100.06 20.4894 101.846 18.2803 101.846H16.0248C13.8156 101.846 12.0248 100.06 12.0248 97.8571V89.8445Z" fill="#6D6D6D"/>
<path d="M12.0248 106.846C12.0248 104.643 13.8156 102.857 16.0248 102.857H18.2803C20.4894 102.857 22.2803 104.643 22.2803 106.846V114.858C22.2803 117.061 20.4894 118.847 18.2803 118.847H16.0248C13.8156 118.847 12.0248 117.061 12.0248 114.858V106.846Z" fill="#6D6D6D"/>
<path d="M12.0248 123.847C12.0248 121.644 13.8156 119.858 16.0248 119.858H18.2803C20.4894 119.858 22.2803 121.644 22.2803 123.847V131.859C22.2803 134.062 20.4894 135.848 18.2803 135.848H16.0248C13.8156 135.848 12.0248 134.062 12.0248 131.859V123.847Z" fill="#6D6D6D"/>
<path d="M12.0248 140.848C12.0248 138.645 13.8156 136.859 16.0248 136.859H18.2803C20.4894 136.859 22.2803 138.645 22.2803 140.848V148.86C22.2803 151.063 20.4894 152.849 18.2803 152.849H16.0248C13.8156 152.849 12.0248 151.063 12.0248 148.86V140.848Z" fill="#6D6D6D"/>
<path d="M12.0248 157.849C12.0248 155.646 13.8156 153.86 16.0248 153.86H18.2803C20.4894 153.86 22.2803 155.646 22.2803 157.849V165.861C22.2803 168.064 20.4894 169.85 18.2803 169.85H16.0248C13.8156 169.85 12.0248 168.064 12.0248 165.861V157.849Z" fill="#6D6D6D"/>
<path d="M23.2358 4.83905C23.2358 2.63608 25.0267 0.85022 27.2358 0.85022H29.4914C31.7005 0.85022 33.4914 2.63608 33.4914 4.83906V12.8517C33.4914 15.0547 31.7005 16.8405 29.4914 16.8405H27.2358C25.0267 16.8405 23.2358 15.0547 23.2358 12.8517V4.83905Z" fill="#6D6D6D"/>
<path d="M23.2358 21.8401C23.2358 19.6371 25.0267 17.8513 27.2358 17.8513H29.4914C31.7005 17.8513 33.4914 19.6372 33.4914 21.8401V29.8528C33.4914 32.0557 31.7005 33.8416 29.4914 33.8416H27.2358C25.0267 33.8416 23.2358 32.0557 23.2358 29.8528V21.8401Z" fill="#6D6D6D"/>
<path d="M23.2358 38.8412C23.2358 36.6382 25.0267 34.8524 27.2358 34.8524H29.4914C31.7005 34.8524 33.4914 36.6382 33.4914 38.8412V46.8539C33.4914 49.0568 31.7005 50.8427 29.4914 50.8427H27.2358C25.0267 50.8427 23.2358 49.0568 23.2358 46.8539V38.8412Z" fill="#6D6D6D"/>
<path d="M23.2358 55.8423C23.2358 53.6393 25.0267 51.8535 27.2358 51.8535H29.4914C31.7005 51.8535 33.4914 53.6393 33.4914 55.8423V63.8549C33.4914 66.0579 31.7005 67.8437 29.4914 67.8437H27.2358C25.0267 67.8437 23.2358 66.0579 23.2358 63.8549V55.8423Z" fill="#6D6D6D"/>
<path d="M23.2358 72.8434C23.2358 70.6404 25.0267 68.8545 27.2358 68.8545H29.4914C31.7005 68.8545 33.4914 70.6404 33.4914 72.8434V80.856C33.4914 83.059 31.7005 84.8448 29.4914 84.8448H27.2358C25.0267 84.8448 23.2358 83.059 23.2358 80.856V72.8434Z" fill="#6D6D6D"/>
<path d="M23.2358 89.8445C23.2358 87.6415 25.0267 85.8556 27.2358 85.8556H29.4914C31.7005 85.8556 33.4914 87.6415 33.4914 89.8445V97.8571C33.4914 100.06 31.7005 101.846 29.4914 101.846H27.2358C25.0267 101.846 23.2358 100.06 23.2358 97.8571V89.8445Z" fill="#6D6D6D"/>
<path d="M23.2358 106.846C23.2358 104.643 25.0267 102.857 27.2358 102.857H29.4914C31.7005 102.857 33.4914 104.643 33.4914 106.846V114.858C33.4914 117.061 31.7005 118.847 29.4914 118.847H27.2358C25.0267 118.847 23.2358 117.061 23.2358 114.858V106.846Z" fill="#6D6D6D"/>
<path d="M23.2358 123.847C23.2358 121.644 25.0267 119.858 27.2358 119.858H29.4914C31.7005 119.858 33.4914 121.644 33.4914 123.847V131.859C33.4914 134.062 31.7005 135.848 29.4914 135.848H27.2358C25.0267 135.848 23.2358 134.062 23.2358 131.859V123.847Z" fill="#6D6D6D"/>
<path d="M23.2358 140.848C23.2358 138.645 25.0267 136.859 27.2358 136.859H29.4914C31.7005 136.859 33.4914 138.645 33.4914 140.848V148.86C33.4914 151.063 31.7005 152.849 29.4914 152.849H27.2358C25.0267 152.849 23.2358 151.063 23.2358 148.86V140.848Z" fill="#6D6D6D"/>
<path d="M23.2358 157.849C23.2358 155.646 25.0267 153.86 27.2358 153.86H29.4914C31.7005 153.86 33.4914 155.646 33.4914 157.849V165.861C33.4914 168.064 31.7005 169.85 29.4914 169.85H27.2358C25.0267 169.85 23.2358 168.064 23.2358 165.861V157.849Z" fill="#6D6D6D"/>
<path d="M34.4469 4.83905C34.4469 2.63608 36.2378 0.85022 38.4469 0.85022H40.7024C42.9116 0.85022 44.7024 2.63608 44.7024 4.83906V12.8517C44.7024 15.0547 42.9116 16.8405 40.7024 16.8405H38.4469C36.2378 16.8405 34.4469 15.0547 34.4469 12.8517V4.83905Z" fill="#6D6D6D"/>
<path d="M34.4469 21.8401C34.4469 19.6371 36.2378 17.8513 38.4469 17.8513H40.7024C42.9116 17.8513 44.7024 19.6372 44.7024 21.8401V29.8528C44.7024 32.0557 42.9116 33.8416 40.7024 33.8416H38.4469C36.2378 33.8416 34.4469 32.0557 34.4469 29.8528V21.8401Z" fill="#6D6D6D"/>
<path d="M34.4469 38.8412C34.4469 36.6382 36.2378 34.8524 38.4469 34.8524H40.7024C42.9116 34.8524 44.7024 36.6382 44.7024 38.8412V46.8539C44.7024 49.0568 42.9116 50.8427 40.7024 50.8427H38.4469C36.2378 50.8427 34.4469 49.0568 34.4469 46.8539V38.8412Z" fill="#6D6D6D"/>
<path d="M34.4469 55.8423C34.4469 53.6393 36.2378 51.8535 38.4469 51.8535H40.7024C42.9116 51.8535 44.7024 53.6393 44.7024 55.8423V63.8549C44.7024 66.0579 42.9116 67.8437 40.7024 67.8437H38.4469C36.2378 67.8437 34.4469 66.0579 34.4469 63.8549V55.8423Z" fill="#6D6D6D"/>
<path d="M34.4469 72.8434C34.4469 70.6404 36.2378 68.8545 38.4469 68.8545H40.7024C42.9116 68.8545 44.7024 70.6404 44.7024 72.8434V80.856C44.7024 83.059 42.9116 84.8448 40.7024 84.8448H38.4469C36.2378 84.8448 34.4469 83.059 34.4469 80.856V72.8434Z" fill="#6D6D6D"/>
<path d="M34.4469 89.8445C34.4469 87.6415 36.2378 85.8556 38.4469 85.8556H40.7024C42.9116 85.8556 44.7024 87.6415 44.7024 89.8445V97.8571C44.7024 100.06 42.9116 101.846 40.7024 101.846H38.4469C36.2378 101.846 34.4469 100.06 34.4469 97.8571V89.8445Z" fill="#6D6D6D"/>
<path d="M34.4469 106.846C34.4469 104.643 36.2378 102.857 38.4469 102.857H40.7024C42.9116 102.857 44.7024 104.643 44.7024 106.846V114.858C44.7024 117.061 42.9116 118.847 40.7024 118.847H38.4469C36.2378 118.847 34.4469 117.061 34.4469 114.858V106.846Z" fill="#6D6D6D"/>
<path d="M34.4469 123.847C34.4469 121.644 36.2378 119.858 38.4469 119.858H40.7024C42.9116 119.858 44.7024 121.644 44.7024 123.847V131.859C44.7024 134.062 42.9116 135.848 40.7024 135.848H38.4469C36.2378 135.848 34.4469 134.062 34.4469 131.859V123.847Z" fill="#6D6D6D"/>
<path d="M34.4469 140.848C34.4469 138.645 36.2378 136.859 38.4469 136.859H40.7024C42.9116 136.859 44.7024 138.645 44.7024 140.848V148.86C44.7024 151.063 42.9116 152.849 40.7024 152.849H38.4469C36.2378 152.849 34.4469 151.063 34.4469 148.86V140.848Z" fill="#6D6D6D"/>
<path d="M34.4469 157.849C34.4469 155.646 36.2378 153.86 38.4469 153.86H40.7024C42.9116 153.86 44.7024 155.646 44.7024 157.849V165.861C44.7024 168.064 42.9116 169.85 40.7024 169.85H38.4469C36.2378 169.85 34.4469 168.064 34.4469 165.861V157.849Z" fill="#6D6D6D"/>
<path d="M45.658 4.83905C45.658 2.63608 47.4488 0.85022 49.658 0.85022H51.9135C54.1226 0.85022 55.9135 2.63608 55.9135 4.83906V12.8517C55.9135 15.0547 54.1226 16.8405 51.9135 16.8405H49.658C47.4488 16.8405 45.658 15.0547 45.658 12.8517V4.83905Z" fill="#6D6D6D"/>
<path d="M45.658 21.8401C45.658 19.6371 47.4488 17.8513 49.658 17.8513H51.9135C54.1226 17.8513 55.9135 19.6372 55.9135 21.8401V29.8528C55.9135 32.0557 54.1226 33.8416 51.9135 33.8416H49.658C47.4488 33.8416 45.658 32.0557 45.658 29.8528V21.8401Z" fill="#6D6D6D"/>
<path d="M45.658 38.8412C45.658 36.6382 47.4488 34.8524 49.658 34.8524H51.9135C54.1226 34.8524 55.9135 36.6382 55.9135 38.8412V46.8539C55.9135 49.0568 54.1226 50.8427 51.9135 50.8427H49.658C47.4488 50.8427 45.658 49.0568 45.658 46.8539V38.8412Z" fill="#6D6D6D"/>
<path d="M45.658 55.8423C45.658 53.6393 47.4488 51.8535 49.658 51.8535H51.9135C54.1226 51.8535 55.9135 53.6393 55.9135 55.8423V63.8549C55.9135 66.0579 54.1226 67.8437 51.9135 67.8437H49.658C47.4488 67.8437 45.658 66.0579 45.658 63.8549V55.8423Z" fill="#6D6D6D"/>
<path d="M45.658 72.8434C45.658 70.6404 47.4488 68.8545 49.658 68.8545H51.9135C54.1226 68.8545 55.9135 70.6404 55.9135 72.8434V80.856C55.9135 83.059 54.1226 84.8448 51.9135 84.8448H49.658C47.4488 84.8448 45.658 83.059 45.658 80.856V72.8434Z" fill="#6D6D6D"/>
<path d="M45.658 89.8445C45.658 87.6415 47.4488 85.8556 49.658 85.8556H51.9135C54.1226 85.8556 55.9135 87.6415 55.9135 89.8445V97.8571C55.9135 100.06 54.1226 101.846 51.9135 101.846H49.658C47.4488 101.846 45.658 100.06 45.658 97.8571V89.8445Z" fill="#6D6D6D"/>
<path d="M45.658 106.846C45.658 104.643 47.4488 102.857 49.658 102.857H51.9135C54.1226 102.857 55.9135 104.643 55.9135 106.846V114.858C55.9135 117.061 54.1226 118.847 51.9135 118.847H49.658C47.4488 118.847 45.658 117.061 45.658 114.858V106.846Z" fill="#6D6D6D"/>
<path d="M45.658 123.847C45.658 121.644 47.4488 119.858 49.658 119.858H51.9135C54.1226 119.858 55.9135 121.644 55.9135 123.847V131.859C55.9135 134.062 54.1226 135.848 51.9135 135.848H49.658C47.4488 135.848 45.658 134.062 45.658 131.859V123.847Z" fill="#6D6D6D"/>
<path d="M45.658 140.848C45.658 138.645 47.4488 136.859 49.658 136.859H51.9135C54.1226 136.859 55.9135 138.645 55.9135 140.848V148.86C55.9135 151.063 54.1226 152.849 51.9135 152.849H49.658C47.4488 152.849 45.658 151.063 45.658 148.86V140.848Z" fill="#6D6D6D"/>
<path d="M45.658 157.849C45.658 155.646 47.4488 153.86 49.658 153.86H51.9135C54.1226 153.86 55.9135 155.646 55.9135 157.849V165.861C55.9135 168.064 54.1226 169.85 51.9135 169.85H49.658C47.4488 169.85 45.658 168.064 45.658 165.861V157.849Z" fill="#6D6D6D"/>
<path d="M56.869 4.83905C56.869 2.63608 58.6599 0.85022 60.869 0.85022H63.1245C65.3337 0.85022 67.1245 2.63608 67.1245 4.83906V12.8517C67.1245 15.0547 65.3337 16.8405 63.1245 16.8405H60.869C58.6599 16.8405 56.869 15.0547 56.869 12.8517V4.83905Z" fill="#6D6D6D"/>
<path d="M56.869 21.8401C56.869 19.6371 58.6599 17.8513 60.869 17.8513H63.1245C65.3337 17.8513 67.1245 19.6372 67.1245 21.8401V29.8528C67.1245 32.0557 65.3337 33.8416 63.1245 33.8416H60.869C58.6599 33.8416 56.869 32.0557 56.869 29.8528V21.8401Z" fill="#6D6D6D"/>
<path d="M56.869 38.8412C56.869 36.6382 58.6599 34.8524 60.869 34.8524H63.1245C65.3337 34.8524 67.1245 36.6382 67.1245 38.8412V46.8539C67.1245 49.0568 65.3337 50.8427 63.1245 50.8427H60.869C58.6599 50.8427 56.869 49.0568 56.869 46.8539V38.8412Z" fill="#6D6D6D"/>
<path d="M56.869 55.8423C56.869 53.6393 58.6599 51.8535 60.869 51.8535H63.1245C65.3337 51.8535 67.1245 53.6393 67.1245 55.8423V63.8549C67.1245 66.0579 65.3337 67.8437 63.1245 67.8437H60.869C58.6599 67.8437 56.869 66.0579 56.869 63.8549V55.8423Z" fill="#6D6D6D"/>
<path d="M56.869 72.8434C56.869 70.6404 58.6599 68.8545 60.869 68.8545H63.1245C65.3337 68.8545 67.1245 70.6404 67.1245 72.8434V80.856C67.1245 83.059 65.3337 84.8448 63.1245 84.8448H60.869C58.6599 84.8448 56.869 83.059 56.869 80.856V72.8434Z" fill="#6D6D6D"/>
<path d="M56.869 89.8445C56.869 87.6415 58.6599 85.8556 60.869 85.8556H63.1245C65.3337 85.8556 67.1245 87.6415 67.1245 89.8445V97.8571C67.1245 100.06 65.3337 101.846 63.1245 101.846H60.869C58.6599 101.846 56.869 100.06 56.869 97.8571V89.8445Z" fill="#6D6D6D"/>
<path d="M56.869 106.846C56.869 104.643 58.6599 102.857 60.869 102.857H63.1245C65.3337 102.857 67.1245 104.643 67.1245 106.846V114.858C67.1245 117.061 65.3337 118.847 63.1245 118.847H60.869C58.6599 118.847 56.869 117.061 56.869 114.858V106.846Z" fill="#6D6D6D"/>
<path d="M56.869 123.847C56.869 121.644 58.6599 119.858 60.869 119.858H63.1245C65.3337 119.858 67.1245 121.644 67.1245 123.847V131.859C67.1245 134.062 65.3337 135.848 63.1245 135.848H60.869C58.6599 135.848 56.869 134.062 56.869 131.859V123.847Z" fill="#6D6D6D"/>
<path d="M56.869 140.848C56.869 138.645 58.6599 136.859 60.869 136.859H63.1245C65.3337 136.859 67.1245 138.645 67.1245 140.848V148.86C67.1245 151.063 65.3337 152.849 63.1245 152.849H60.869C58.6599 152.849 56.869 151.063 56.869 148.86V140.848Z" fill="#6D6D6D"/>
<path d="M56.869 157.849C56.869 155.646 58.6599 153.86 60.869 153.86H63.1245C65.3337 153.86 67.1245 155.646 67.1245 157.849V165.861C67.1245 168.064 65.3337 169.85 63.1245 169.85H60.869C58.6599 169.85 56.869 168.064 56.869 165.861V157.849Z" fill="#6D6D6D"/>
<path d="M68.0801 4.83905C68.0801 2.63608 69.8709 0.85022 72.0801 0.85022H74.3356C76.5447 0.85022 78.3356 2.63608 78.3356 4.83906V12.8517C78.3356 15.0547 76.5447 16.8405 74.3356 16.8405H72.0801C69.8709 16.8405 68.0801 15.0547 68.0801 12.8517V4.83905Z" fill="#6D6D6D"/>
<path d="M68.0801 21.8401C68.0801 19.6371 69.8709 17.8513 72.0801 17.8513H74.3356C76.5447 17.8513 78.3356 19.6372 78.3356 21.8401V29.8528C78.3356 32.0557 76.5447 33.8416 74.3356 33.8416H72.0801C69.8709 33.8416 68.0801 32.0557 68.0801 29.8528V21.8401Z" fill="#6D6D6D"/>
<path d="M68.0801 38.8412C68.0801 36.6382 69.8709 34.8524 72.0801 34.8524H74.3356C76.5447 34.8524 78.3356 36.6382 78.3356 38.8412V46.8539C78.3356 49.0568 76.5447 50.8427 74.3356 50.8427H72.0801C69.8709 50.8427 68.0801 49.0568 68.0801 46.8539V38.8412Z" fill="#6D6D6D"/>
<path d="M68.0801 55.8423C68.0801 53.6393 69.8709 51.8535 72.0801 51.8535H74.3356C76.5447 51.8535 78.3356 53.6393 78.3356 55.8423V63.8549C78.3356 66.0579 76.5447 67.8437 74.3356 67.8437H72.0801C69.8709 67.8437 68.0801 66.0579 68.0801 63.8549V55.8423Z" fill="#6D6D6D"/>
<path d="M68.0801 72.8434C68.0801 70.6404 69.8709 68.8545 72.0801 68.8545H74.3356C76.5447 68.8545 78.3356 70.6404 78.3356 72.8434V80.856C78.3356 83.059 76.5447 84.8448 74.3356 84.8448H72.0801C69.8709 84.8448 68.0801 83.059 68.0801 80.856V72.8434Z" fill="#6D6D6D"/>
<path d="M68.0801 89.8445C68.0801 87.6415 69.8709 85.8556 72.0801 85.8556H74.3356C76.5447 85.8556 78.3356 87.6415 78.3356 89.8445V97.8571C78.3356 100.06 76.5447 101.846 74.3356 101.846H72.0801C69.8709 101.846 68.0801 100.06 68.0801 97.8571V89.8445Z" fill="#6D6D6D"/>
<path d="M68.0801 106.846C68.0801 104.643 69.8709 102.857 72.0801 102.857H74.3356C76.5447 102.857 78.3356 104.643 78.3356 106.846V114.858C78.3356 117.061 76.5447 118.847 74.3356 118.847H72.0801C69.8709 118.847 68.0801 117.061 68.0801 114.858V106.846Z" fill="#6D6D6D"/>
<path d="M68.0801 123.847C68.0801 121.644 69.8709 119.858 72.0801 119.858H74.3356C76.5447 119.858 78.3356 121.644 78.3356 123.847V131.859C78.3356 134.062 76.5447 135.848 74.3356 135.848H72.0801C69.8709 135.848 68.0801 134.062 68.0801 131.859V123.847Z" fill="#6D6D6D"/>
<path d="M68.0801 140.848C68.0801 138.645 69.8709 136.859 72.0801 136.859H74.3356C76.5447 136.859 78.3356 138.645 78.3356 140.848V148.86C78.3356 151.063 76.5447 152.849 74.3356 152.849H72.0801C69.8709 152.849 68.0801 151.063 68.0801 148.86V140.848Z" fill="#6D6D6D"/>
<path d="M68.0801 157.849C68.0801 155.646 69.8709 153.86 72.0801 153.86H74.3356C76.5447 153.86 78.3356 155.646 78.3356 157.849V165.861C78.3356 168.064 76.5447 169.85 74.3356 169.85H72.0801C69.8709 169.85 68.0801 168.064 68.0801 165.861V157.849Z" fill="#6D6D6D"/>
<path d="M79.2911 4.83905C79.2911 2.63608 81.082 0.85022 83.2911 0.85022H85.5467C87.7558 0.85022 89.5467 2.63608 89.5467 4.83906V12.8517C89.5467 15.0547 87.7558 16.8405 85.5467 16.8405H83.2911C81.082 16.8405 79.2911 15.0547 79.2911 12.8517V4.83905Z" fill="#6D6D6D"/>
<path d="M79.2911 21.8401C79.2911 19.6371 81.082 17.8513 83.2911 17.8513H85.5467C87.7558 17.8513 89.5467 19.6372 89.5467 21.8401V29.8528C89.5467 32.0557 87.7558 33.8416 85.5467 33.8416H83.2911C81.082 33.8416 79.2911 32.0557 79.2911 29.8528V21.8401Z" fill="#6D6D6D"/>
<path d="M79.2911 38.8412C79.2911 36.6382 81.082 34.8524 83.2911 34.8524H85.5467C87.7558 34.8524 89.5467 36.6382 89.5467 38.8412V46.8539C89.5467 49.0568 87.7558 50.8427 85.5467 50.8427H83.2911C81.082 50.8427 79.2911 49.0568 79.2911 46.8539V38.8412Z" fill="#6D6D6D"/>
<path d="M79.2911 55.8423C79.2911 53.6393 81.082 51.8535 83.2911 51.8535H85.5467C87.7558 51.8535 89.5467 53.6393 89.5467 55.8423V63.8549C89.5467 66.0579 87.7558 67.8437 85.5467 67.8437H83.2911C81.082 67.8437 79.2911 66.0579 79.2911 63.8549V55.8423Z" fill="#6D6D6D"/>
<path d="M79.2911 72.8434C79.2911 70.6404 81.082 68.8545 83.2911 68.8545H85.5467C87.7558 68.8545 89.5467 70.6404 89.5467 72.8434V80.856C89.5467 83.059 87.7558 84.8448 85.5467 84.8448H83.2911C81.082 84.8448 79.2911 83.059 79.2911 80.856V72.8434Z" fill="#6D6D6D"/>
<path d="M79.2911 89.8445C79.2911 87.6415 81.082 85.8556 83.2911 85.8556H85.5467C87.7558 85.8556 89.5467 87.6415 89.5467 89.8445V97.8571C89.5467 100.06 87.7558 101.846 85.5467 101.846H83.2911C81.082 101.846 79.2911 100.06 79.2911 97.8571V89.8445Z" fill="#6D6D6D"/>
<path d="M79.2911 106.846C79.2911 104.643 81.082 102.857 83.2911 102.857H85.5467C87.7558 102.857 89.5467 104.643 89.5467 106.846V114.858C89.5467 117.061 87.7558 118.847 85.5467 118.847H83.2911C81.082 118.847 79.2911 117.061 79.2911 114.858V106.846Z" fill="#6D6D6D"/>
<path d="M79.2911 123.847C79.2911 121.644 81.082 119.858 83.2911 119.858H85.5467C87.7558 119.858 89.5467 121.644 89.5467 123.847V131.859C89.5467 134.062 87.7558 135.848 85.5467 135.848H83.2911C81.082 135.848 79.2911 134.062 79.2911 131.859V123.847Z" fill="#6D6D6D"/>
<path d="M79.2911 140.848C79.2911 138.645 81.082 136.859 83.2911 136.859H85.5467C87.7558 136.859 89.5467 138.645 89.5467 140.848V148.86C89.5467 151.063 87.7558 152.849 85.5467 152.849H83.2911C81.082 152.849 79.2911 151.063 79.2911 148.86V140.848Z" fill="#6D6D6D"/>
<path d="M79.2911 157.849C79.2911 155.646 81.082 153.86 83.2911 153.86H85.5467C87.7558 153.86 89.5467 155.646 89.5467 157.849V165.861C89.5467 168.064 87.7558 169.85 85.5467 169.85H83.2911C81.082 169.85 79.2911 168.064 79.2911 165.861V157.849Z" fill="#6D6D6D"/>
<path d="M90.5022 4.83905C90.5022 2.63608 92.2931 0.85022 94.5022 0.85022H96.7577C98.9669 0.85022 100.758 2.63608 100.758 4.83906V12.8517C100.758 15.0547 98.9669 16.8405 96.7577 16.8405H94.5022C92.2931 16.8405 90.5022 15.0547 90.5022 12.8517V4.83905Z" fill="#6D6D6D"/>
<path d="M90.5022 21.8401C90.5022 19.6371 92.2931 17.8513 94.5022 17.8513H96.7577C98.9669 17.8513 100.758 19.6372 100.758 21.8401V29.8528C100.758 32.0557 98.9669 33.8416 96.7577 33.8416H94.5022C92.2931 33.8416 90.5022 32.0557 90.5022 29.8528V21.8401Z" fill="#6D6D6D"/>
<path d="M90.5022 38.8412C90.5022 36.6382 92.2931 34.8524 94.5022 34.8524H96.7577C98.9669 34.8524 100.758 36.6382 100.758 38.8412V46.8539C100.758 49.0568 98.9669 50.8427 96.7577 50.8427H94.5022C92.2931 50.8427 90.5022 49.0568 90.5022 46.8539V38.8412Z" fill="#6D6D6D"/>
<path d="M90.5022 55.8423C90.5022 53.6393 92.2931 51.8535 94.5022 51.8535H96.7577C98.9669 51.8535 100.758 53.6393 100.758 55.8423V63.8549C100.758 66.0579 98.9669 67.8437 96.7577 67.8437H94.5022C92.2931 67.8437 90.5022 66.0579 90.5022 63.8549V55.8423Z" fill="#6D6D6D"/>
<path d="M90.5022 72.8434C90.5022 70.6404 92.2931 68.8545 94.5022 68.8545H96.7577C98.9669 68.8545 100.758 70.6404 100.758 72.8434V80.856C100.758 83.059 98.9669 84.8448 96.7577 84.8448H94.5022C92.2931 84.8448 90.5022 83.059 90.5022 80.856V72.8434Z" fill="#6D6D6D"/>
<path d="M90.5022 89.8445C90.5022 87.6415 92.2931 85.8556 94.5022 85.8556H96.7577C98.9669 85.8556 100.758 87.6415 100.758 89.8445V97.8571C100.758 100.06 98.9669 101.846 96.7577 101.846H94.5022C92.2931 101.846 90.5022 100.06 90.5022 97.8571V89.8445Z" fill="#6D6D6D"/>
<path d="M90.5022 106.846C90.5022 104.643 92.2931 102.857 94.5022 102.857H96.7577C98.9669 102.857 100.758 104.643 100.758 106.846V114.858C100.758 117.061 98.9669 118.847 96.7577 118.847H94.5022C92.2931 118.847 90.5022 117.061 90.5022 114.858V106.846Z" fill="#6D6D6D"/>
<path d="M90.5022 123.847C90.5022 121.644 92.2931 119.858 94.5022 119.858H96.7577C98.9669 119.858 100.758 121.644 100.758 123.847V131.859C100.758 134.062 98.9669 135.848 96.7577 135.848H94.5022C92.2931 135.848 90.5022 134.062 90.5022 131.859V123.847Z" fill="#6D6D6D"/>
<path d="M90.5022 140.848C90.5022 138.645 92.2931 136.859 94.5022 136.859H96.7577C98.9669 136.859 100.758 138.645 100.758 140.848V148.86C100.758 151.063 98.9669 152.849 96.7577 152.849H94.5022C92.2931 152.849 90.5022 151.063 90.5022 148.86V140.848Z" fill="#6D6D6D"/>
<path d="M90.5022 157.849C90.5022 155.646 92.2931 153.86 94.5022 153.86H96.7577C98.9669 153.86 100.758 155.646 100.758 157.849V165.861C100.758 168.064 98.9669 169.85 96.7577 169.85H94.5022C92.2931 169.85 90.5022 168.064 90.5022 165.861V157.849Z" fill="#6D6D6D"/>
<path d="M101.713 4.83905C101.713 2.63608 103.504 0.85022 105.713 0.85022H107.969C110.178 0.85022 111.969 2.63608 111.969 4.83906V12.8517C111.969 15.0547 110.178 16.8405 107.969 16.8405H105.713C103.504 16.8405 101.713 15.0547 101.713 12.8517V4.83905Z" fill="#6D6D6D"/>
<path d="M101.713 21.8401C101.713 19.6371 103.504 17.8513 105.713 17.8513H107.969C110.178 17.8513 111.969 19.6372 111.969 21.8401V29.8528C111.969 32.0557 110.178 33.8416 107.969 33.8416H105.713C103.504 33.8416 101.713 32.0557 101.713 29.8528V21.8401Z" fill="#6D6D6D"/>
<path d="M101.713 38.8412C101.713 36.6382 103.504 34.8524 105.713 34.8524H107.969C110.178 34.8524 111.969 36.6382 111.969 38.8412V46.8539C111.969 49.0568 110.178 50.8427 107.969 50.8427H105.713C103.504 50.8427 101.713 49.0568 101.713 46.8539V38.8412Z" fill="#6D6D6D"/>
<path d="M101.713 55.8423C101.713 53.6393 103.504 51.8535 105.713 51.8535H107.969C110.178 51.8535 111.969 53.6393 111.969 55.8423V63.8549C111.969 66.0579 110.178 67.8437 107.969 67.8437H105.713C103.504 67.8437 101.713 66.0579 101.713 63.8549V55.8423Z" fill="#6D6D6D"/>
<path d="M101.713 72.8434C101.713 70.6404 103.504 68.8545 105.713 68.8545H107.969C110.178 68.8545 111.969 70.6404 111.969 72.8434V80.856C111.969 83.059 110.178 84.8448 107.969 84.8448H105.713C103.504 84.8448 101.713 83.059 101.713 80.856V72.8434Z" fill="#6D6D6D"/>
<path d="M101.713 89.8445C101.713 87.6415 103.504 85.8556 105.713 85.8556H107.969C110.178 85.8556 111.969 87.6415 111.969 89.8445V97.8571C111.969 100.06 110.178 101.846 107.969 101.846H105.713C103.504 101.846 101.713 100.06 101.713 97.8571V89.8445Z" fill="#6D6D6D"/>
<path d="M101.713 106.846C101.713 104.643 103.504 102.857 105.713 102.857H107.969C110.178 102.857 111.969 104.643 111.969 106.846V114.858C111.969 117.061 110.178 118.847 107.969 118.847H105.713C103.504 118.847 101.713 117.061 101.713 114.858V106.846Z" fill="#6D6D6D"/>
<path d="M101.713 123.847C101.713 121.644 103.504 119.858 105.713 119.858H107.969C110.178 119.858 111.969 121.644 111.969 123.847V131.859C111.969 134.062 110.178 135.848 107.969 135.848H105.713C103.504 135.848 101.713 134.062 101.713 131.859V123.847Z" fill="#6D6D6D"/>
<path d="M101.713 140.848C101.713 138.645 103.504 136.859 105.713 136.859H107.969C110.178 136.859 111.969 138.645 111.969 140.848V148.86C111.969 151.063 110.178 152.849 107.969 152.849H105.713C103.504 152.849 101.713 151.063 101.713 148.86V140.848Z" fill="#6D6D6D"/>
<path d="M101.713 157.849C101.713 155.646 103.504 153.86 105.713 153.86H107.969C110.178 153.86 111.969 155.646 111.969 157.849V165.861C111.969 168.064 110.178 169.85 107.969 169.85H105.713C103.504 169.85 101.713 168.064 101.713 165.861V157.849Z" fill="#6D6D6D"/>
<path d="M112.924 4.83905C112.924 2.63608 114.715 0.85022 116.924 0.85022H119.18C121.389 0.85022 123.18 2.63608 123.18 4.83906V12.8517C123.18 15.0547 121.389 16.8405 119.18 16.8405H116.924C114.715 16.8405 112.924 15.0547 112.924 12.8517V4.83905Z" fill="#6D6D6D"/>
<path d="M112.924 21.8401C112.924 19.6371 114.715 17.8513 116.924 17.8513H119.18C121.389 17.8513 123.18 19.6372 123.18 21.8401V29.8528C123.18 32.0557 121.389 33.8416 119.18 33.8416H116.924C114.715 33.8416 112.924 32.0557 112.924 29.8528V21.8401Z" fill="#6D6D6D"/>
<path d="M112.924 38.8412C112.924 36.6382 114.715 34.8524 116.924 34.8524H119.18C121.389 34.8524 123.18 36.6382 123.18 38.8412V46.8539C123.18 49.0568 121.389 50.8427 119.18 50.8427H116.924C114.715 50.8427 112.924 49.0568 112.924 46.8539V38.8412Z" fill="#6D6D6D"/>
<path d="M112.924 55.8423C112.924 53.6393 114.715 51.8535 116.924 51.8535H119.18C121.389 51.8535 123.18 53.6393 123.18 55.8423V63.8549C123.18 66.0579 121.389 67.8437 119.18 67.8437H116.924C114.715 67.8437 112.924 66.0579 112.924 63.8549V55.8423Z" fill="#6D6D6D"/>
<path d="M112.924 72.8434C112.924 70.6404 114.715 68.8545 116.924 68.8545H119.18C121.389 68.8545 123.18 70.6404 123.18 72.8434V80.856C123.18 83.059 121.389 84.8448 119.18 84.8448H116.924C114.715 84.8448 112.924 83.059 112.924 80.856V72.8434Z" fill="#6D6D6D"/>
<path d="M112.924 89.8445C112.924 87.6415 114.715 85.8556 116.924 85.8556H119.18C121.389 85.8556 123.18 87.6415 123.18 89.8445V97.8571C123.18 100.06 121.389 101.846 119.18 101.846H116.924C114.715 101.846 112.924 100.06 112.924 97.8571V89.8445Z" fill="#6D6D6D"/>
<path d="M112.924 106.846C112.924 104.643 114.715 102.857 116.924 102.857H119.18C121.389 102.857 123.18 104.643 123.18 106.846V114.858C123.18 117.061 121.389 118.847 119.18 118.847H116.924C114.715 118.847 112.924 117.061 112.924 114.858V106.846Z" fill="#6D6D6D"/>
<path d="M112.924 123.847C112.924 121.644 114.715 119.858 116.924 119.858H119.18C121.389 119.858 123.18 121.644 123.18 123.847V131.859C123.18 134.062 121.389 135.848 119.18 135.848H116.924C114.715 135.848 112.924 134.062 112.924 131.859V123.847Z" fill="#6D6D6D"/>
<path d="M112.924 140.848C112.924 138.645 114.715 136.859 116.924 136.859H119.18C121.389 136.859 123.18 138.645 123.18 140.848V148.86C123.18 151.063 121.389 152.849 119.18 152.849H116.924C114.715 152.849 112.924 151.063 112.924 148.86V140.848Z" fill="#6D6D6D"/>
<path d="M112.924 157.849C112.924 155.646 114.715 153.86 116.924 153.86H119.18C121.389 153.86 123.18 155.646 123.18 157.849V165.861C123.18 168.064 121.389 169.85 119.18 169.85H116.924C114.715 169.85 112.924 168.064 112.924 165.861V157.849Z" fill="#6D6D6D"/>
<path d="M124.135 4.83905C124.135 2.63608 125.926 0.85022 128.135 0.85022H130.391C132.6 0.85022 134.391 2.63608 134.391 4.83906V12.8517C134.391 15.0547 132.6 16.8405 130.391 16.8405H128.135C125.926 16.8405 124.135 15.0547 124.135 12.8517V4.83905Z" fill="#6D6D6D"/>
<path d="M124.135 21.8401C124.135 19.6371 125.926 17.8513 128.135 17.8513H130.391C132.6 17.8513 134.391 19.6372 134.391 21.8401V29.8528C134.391 32.0557 132.6 33.8416 130.391 33.8416H128.135C125.926 33.8416 124.135 32.0557 124.135 29.8528V21.8401Z" fill="#6D6D6D"/>
<path d="M124.135 38.8412C124.135 36.6382 125.926 34.8524 128.135 34.8524H130.391C132.6 34.8524 134.391 36.6382 134.391 38.8412V46.8539C134.391 49.0568 132.6 50.8427 130.391 50.8427H128.135C125.926 50.8427 124.135 49.0568 124.135 46.8539V38.8412Z" fill="#6D6D6D"/>
<path d="M124.135 55.8423C124.135 53.6393 125.926 51.8535 128.135 51.8535H130.391C132.6 51.8535 134.391 53.6393 134.391 55.8423V63.8549C134.391 66.0579 132.6 67.8437 130.391 67.8437H128.135C125.926 67.8437 124.135 66.0579 124.135 63.8549V55.8423Z" fill="#6D6D6D"/>
<path d="M124.135 72.8434C124.135 70.6404 125.926 68.8545 128.135 68.8545H130.391C132.6 68.8545 134.391 70.6404 134.391 72.8434V80.856C134.391 83.059 132.6 84.8448 130.391 84.8448H128.135C125.926 84.8448 124.135 83.059 124.135 80.856V72.8434Z" fill="#6D6D6D"/>
<path d="M124.135 89.8445C124.135 87.6415 125.926 85.8556 128.135 85.8556H130.391C132.6 85.8556 134.391 87.6415 134.391 89.8445V97.8571C134.391 100.06 132.6 101.846 130.391 101.846H128.135C125.926 101.846 124.135 100.06 124.135 97.8571V89.8445Z" fill="#6D6D6D"/>
<path d="M124.135 106.846C124.135 104.643 125.926 102.857 128.135 102.857H130.391C132.6 102.857 134.391 104.643 134.391 106.846V114.858C134.391 117.061 132.6 118.847 130.391 118.847H128.135C125.926 118.847 124.135 117.061 124.135 114.858V106.846Z" fill="#6D6D6D"/>
<path d="M124.135 123.847C124.135 121.644 125.926 119.858 128.135 119.858H130.391C132.6 119.858 134.391 121.644 134.391 123.847V131.859C134.391 134.062 132.6 135.848 130.391 135.848H128.135C125.926 135.848 124.135 134.062 124.135 131.859V123.847Z" fill="#6D6D6D"/>
<path d="M124.135 140.848C124.135 138.645 125.926 136.859 128.135 136.859H130.391C132.6 136.859 134.391 138.645 134.391 140.848V148.86C134.391 151.063 132.6 152.849 130.391 152.849H128.135C125.926 152.849 124.135 151.063 124.135 148.86V140.848Z" fill="#6D6D6D"/>
<path d="M124.135 157.849C124.135 155.646 125.926 153.86 128.135 153.86H130.391C132.6 153.86 134.391 155.646 134.391 157.849V165.861C134.391 168.064 132.6 169.85 130.391 169.85H128.135C125.926 169.85 124.135 168.064 124.135 165.861V157.849Z" fill="#6D6D6D"/>
<path d="M135.346 4.83905C135.346 2.63608 137.137 0.85022 139.346 0.85022H141.602C143.811 0.85022 145.602 2.63608 145.602 4.83906V12.8517C145.602 15.0547 143.811 16.8405 141.602 16.8405H139.346C137.137 16.8405 135.346 15.0547 135.346 12.8517V4.83905Z" fill="#6D6D6D"/>
<path d="M135.346 21.8401C135.346 19.6371 137.137 17.8513 139.346 17.8513H141.602C143.811 17.8513 145.602 19.6372 145.602 21.8401V29.8528C145.602 32.0557 143.811 33.8416 141.602 33.8416H139.346C137.137 33.8416 135.346 32.0557 135.346 29.8528V21.8401Z" fill="#6D6D6D"/>
<path d="M135.346 38.8412C135.346 36.6382 137.137 34.8524 139.346 34.8524H141.602C143.811 34.8524 145.602 36.6382 145.602 38.8412V46.8539C145.602 49.0568 143.811 50.8427 141.602 50.8427H139.346C137.137 50.8427 135.346 49.0568 135.346 46.8539V38.8412Z" fill="#6D6D6D"/>
<path d="M135.346 55.8423C135.346 53.6393 137.137 51.8535 139.346 51.8535H141.602C143.811 51.8535 145.602 53.6393 145.602 55.8423V63.8549C145.602 66.0579 143.811 67.8437 141.602 67.8437H139.346C137.137 67.8437 135.346 66.0579 135.346 63.8549V55.8423Z" fill="#6D6D6D"/>
<path d="M135.346 72.8434C135.346 70.6404 137.137 68.8545 139.346 68.8545H141.602C143.811 68.8545 145.602 70.6404 145.602 72.8434V80.856C145.602 83.059 143.811 84.8448 141.602 84.8448H139.346C137.137 84.8448 135.346 83.059 135.346 80.856V72.8434Z" fill="#6D6D6D"/>
<path d="M135.346 89.8445C135.346 87.6415 137.137 85.8556 139.346 85.8556H141.602C143.811 85.8556 145.602 87.6415 145.602 89.8445V97.8571C145.602 100.06 143.811 101.846 141.602 101.846H139.346C137.137 101.846 135.346 100.06 135.346 97.8571V89.8445Z" fill="#6D6D6D"/>
<path d="M135.346 106.846C135.346 104.643 137.137 102.857 139.346 102.857H141.602C143.811 102.857 145.602 104.643 145.602 106.846V114.858C145.602 117.061 143.811 118.847 141.602 118.847H139.346C137.137 118.847 135.346 117.061 135.346 114.858V106.846Z" fill="#6D6D6D"/>
<path d="M135.346 123.847C135.346 121.644 137.137 119.858 139.346 119.858H141.602C143.811 119.858 145.602 121.644 145.602 123.847V131.859C145.602 134.062 143.811 135.848 141.602 135.848H139.346C137.137 135.848 135.346 134.062 135.346 131.859V123.847Z" fill="#6D6D6D"/>
<path d="M135.346 140.848C135.346 138.645 137.137 136.859 139.346 136.859H141.602C143.811 136.859 145.602 138.645 145.602 140.848V148.86C145.602 151.063 143.811 152.849 141.602 152.849H139.346C137.137 152.849 135.346 151.063 135.346 148.86V140.848Z" fill="#6D6D6D"/>
<path d="M135.346 157.849C135.346 155.646 137.137 153.86 139.346 153.86H141.602C143.811 153.86 145.602 155.646 145.602 157.849V165.861C145.602 168.064 143.811 169.85 141.602 169.85H139.346C137.137 169.85 135.346 168.064 135.346 165.861V157.849Z" fill="#6D6D6D"/>
<path d="M146.557 4.83905C146.557 2.63608 148.348 0.85022 150.557 0.85022H152.813C155.022 0.85022 156.813 2.63608 156.813 4.83906V12.8517C156.813 15.0547 155.022 16.8405 152.813 16.8405H150.557C148.348 16.8405 146.557 15.0547 146.557 12.8517V4.83905Z" fill="#6D6D6D"/>
<path d="M146.557 21.8401C146.557 19.6371 148.348 17.8513 150.557 17.8513H152.813C155.022 17.8513 156.813 19.6372 156.813 21.8401V29.8528C156.813 32.0557 155.022 33.8416 152.813 33.8416H150.557C148.348 33.8416 146.557 32.0557 146.557 29.8528V21.8401Z" fill="#6D6D6D"/>
<path d="M146.557 38.8412C146.557 36.6382 148.348 34.8524 150.557 34.8524H152.813C155.022 34.8524 156.813 36.6382 156.813 38.8412V46.8539C156.813 49.0568 155.022 50.8427 152.813 50.8427H150.557C148.348 50.8427 146.557 49.0568 146.557 46.8539V38.8412Z" fill="#6D6D6D"/>
<path d="M146.557 55.8423C146.557 53.6393 148.348 51.8535 150.557 51.8535H152.813C155.022 51.8535 156.813 53.6393 156.813 55.8423V63.8549C156.813 66.0579 155.022 67.8437 152.813 67.8437H150.557C148.348 67.8437 146.557 66.0579 146.557 63.8549V55.8423Z" fill="#6D6D6D"/>
<path d="M146.557 72.8434C146.557 70.6404 148.348 68.8545 150.557 68.8545H152.813C155.022 68.8545 156.813 70.6404 156.813 72.8434V80.856C156.813 83.059 155.022 84.8448 152.813 84.8448H150.557C148.348 84.8448 146.557 83.059 146.557 80.856V72.8434Z" fill="#6D6D6D"/>
<path d="M146.557 89.8445C146.557 87.6415 148.348 85.8556 150.557 85.8556H152.813C155.022 85.8556 156.813 87.6415 156.813 89.8445V97.8571C156.813 100.06 155.022 101.846 152.813 101.846H150.557C148.348 101.846 146.557 100.06 146.557 97.8571V89.8445Z" fill="#6D6D6D"/>
<path d="M146.557 106.846C146.557 104.643 148.348 102.857 150.557 102.857H152.813C155.022 102.857 156.813 104.643 156.813 106.846V114.858C156.813 117.061 155.022 118.847 152.813 118.847H150.557C148.348 118.847 146.557 117.061 146.557 114.858V106.846Z" fill="#6D6D6D"/>
<path d="M146.557 123.847C146.557 121.644 148.348 119.858 150.557 119.858H152.813C155.022 119.858 156.813 121.644 156.813 123.847V131.859C156.813 134.062 155.022 135.848 152.813 135.848H150.557C148.348 135.848 146.557 134.062 146.557 131.859V123.847Z" fill="#6D6D6D"/>
<path d="M146.557 140.848C146.557 138.645 148.348 136.859 150.557 136.859H152.813C155.022 136.859 156.813 138.645 156.813 140.848V148.86C156.813 151.063 155.022 152.849 152.813 152.849H150.557C148.348 152.849 146.557 151.063 146.557 148.86V140.848Z" fill="#6D6D6D"/>
<path d="M146.557 157.849C146.557 155.646 148.348 153.86 150.557 153.86H152.813C155.022 153.86 156.813 155.646 156.813 157.849V165.861C156.813 168.064 155.022 169.85 152.813 169.85H150.557C148.348 169.85 146.557 168.064 146.557 165.861V157.849Z" fill="#6D6D6D"/>
</svg>
