<svg width="157" height="170" viewBox="0 0 157 170" fill="none" xmlns="http://www.w3.org/2000/svg">
<path d="M0.813741 6.51424C0.813741 3.4146 3.3366 0.901855 6.4487 0.901855H12.569C15.6811 0.901855 18.204 3.41461 18.204 6.51424V14.4396C18.204 17.5392 15.6811 20.052 12.569 20.052H6.44871C3.3366 20.052 0.813741 17.5392 0.813741 14.4396V6.51424Z" fill="#6D6D6D"/>
<path d="M0.813721 49.3286C0.813721 46.2289 3.33658 43.7162 6.44868 43.7162H12.569C15.6811 43.7162 18.2039 46.2289 18.2039 49.3286V57.2539C18.2039 60.3535 15.6811 62.8663 12.569 62.8663H6.44869C3.33658 62.8663 0.813721 60.3535 0.813721 57.2539V49.3286Z" fill="#6D6D6D"/>
<path d="M0.813721 92.1429C0.813721 89.0433 3.33658 86.5305 6.44868 86.5305H12.569C15.6811 86.5305 18.2039 89.0433 18.2039 92.1429V100.068C18.2039 103.168 15.6811 105.681 12.569 105.681H6.44869C3.33658 105.681 0.813721 103.168 0.813721 100.068V92.1429Z" fill="#6D6D6D"/>
<path d="M0.813721 134.957C0.813721 131.858 3.33658 129.345 6.44868 129.345H12.569C15.6811 129.345 18.2039 131.858 18.2039 134.957V142.883C18.2039 145.982 15.6811 148.495 12.569 148.495H6.44869C3.33658 148.495 0.813721 145.982 0.813721 142.883V134.957Z" fill="#6D6D6D"/>
<path d="M0.813927 27.9211C0.813927 24.8215 3.33679 22.3087 6.44889 22.3087H12.5692C15.6813 22.3087 18.2041 24.8215 18.2041 27.9211V35.8465C18.2041 38.9461 15.6813 41.4588 12.5692 41.4588H6.44889C3.33679 41.4588 0.813927 38.9461 0.813927 35.8465V27.9211Z" fill="#6D6D6D"/>
<path d="M0.813927 70.7355C0.813927 67.6358 3.33679 65.1231 6.44889 65.1231H12.5692C15.6813 65.1231 18.2041 67.6358 18.2041 70.7355V78.6608C18.2041 81.7604 15.6813 84.2732 12.5692 84.2732H6.44889C3.33679 84.2732 0.813927 81.7604 0.813927 78.6608V70.7355Z" fill="#6D6D6D"/>
<path d="M0.813927 113.55C0.813927 110.45 3.33679 107.937 6.44889 107.937H12.5692C15.6813 107.937 18.2041 110.45 18.2041 113.55V121.475C18.2041 124.575 15.6813 127.088 12.5692 127.088H6.44889C3.33679 127.088 0.813927 124.575 0.813927 121.475V113.55Z" fill="#6D6D6D"/>
<path d="M0.813927 156.364C0.813927 153.265 3.33679 150.752 6.44889 150.752H12.5692C15.6813 150.752 18.2041 153.265 18.2041 156.364V164.289C18.2041 167.389 15.6813 169.902 12.5692 169.902H6.44889C3.33679 169.902 0.813927 167.389 0.813927 164.289V156.364Z" fill="#6D6D6D"/>
<path d="M60.2132 6.51424C60.2132 3.4146 62.7361 0.901855 65.8482 0.901855H71.9685C75.0806 0.901855 77.6034 3.41461 77.6034 6.51424V14.4396C77.6034 17.5392 75.0806 20.052 71.9685 20.052H65.8482C62.7361 20.052 60.2132 17.5392 60.2132 14.4396V6.51424Z" fill="#6D6D6D"/>
<path d="M60.2132 49.3286C60.2132 46.2289 62.7361 43.7162 65.8482 43.7162H71.9685C75.0806 43.7162 77.6034 46.2289 77.6034 49.3286V57.2539C77.6034 60.3535 75.0806 62.8663 71.9685 62.8663H65.8482C62.7361 62.8663 60.2132 60.3535 60.2132 57.2539V49.3286Z" fill="#6D6D6D"/>
<path d="M60.2132 92.1429C60.2132 89.0433 62.7361 86.5305 65.8482 86.5305H71.9685C75.0806 86.5305 77.6034 89.0433 77.6034 92.1429V100.068C77.6034 103.168 75.0806 105.681 71.9685 105.681H65.8482C62.7361 105.681 60.2132 103.168 60.2132 100.068V92.1429Z" fill="#6D6D6D"/>
<path d="M60.2132 134.957C60.2132 131.858 62.7361 129.345 65.8482 129.345H71.9685C75.0806 129.345 77.6034 131.858 77.6034 134.957V142.883C77.6034 145.982 75.0806 148.495 71.9685 148.495H65.8482C62.7361 148.495 60.2132 145.982 60.2132 142.883V134.957Z" fill="#6D6D6D"/>
<path d="M60.2135 27.9211C60.2135 24.8215 62.7364 22.3087 65.8485 22.3087H71.9688C75.0809 22.3087 77.6037 24.8215 77.6037 27.9211V35.8465C77.6037 38.9461 75.0809 41.4588 71.9688 41.4588H65.8485C62.7364 41.4588 60.2135 38.9461 60.2135 35.8465V27.9211Z" fill="#6D6D6D"/>
<path d="M60.2135 70.7355C60.2135 67.6358 62.7364 65.1231 65.8485 65.1231H71.9688C75.0809 65.1231 77.6037 67.6358 77.6037 70.7355V78.6608C77.6037 81.7604 75.0809 84.2732 71.9688 84.2732H65.8485C62.7364 84.2732 60.2135 81.7604 60.2135 78.6608V70.7355Z" fill="#6D6D6D"/>
<path d="M60.2135 113.55C60.2135 110.45 62.7364 107.937 65.8485 107.937H71.9688C75.0809 107.937 77.6037 110.45 77.6037 113.55V121.475C77.6037 124.575 75.0809 127.088 71.9688 127.088H65.8485C62.7364 127.088 60.2135 124.575 60.2135 121.475V113.55Z" fill="#6D6D6D"/>
<path d="M60.2135 156.364C60.2135 153.264 62.7364 150.752 65.8485 150.752H71.9688C75.0809 150.752 77.6037 153.264 77.6037 156.364V164.289C77.6037 167.389 75.0809 169.902 71.9688 169.902H65.8485C62.7364 169.902 60.2135 167.389 60.2135 164.289V156.364Z" fill="#6D6D6D"/>
<path d="M119.612 6.51424C119.612 3.4146 122.135 0.901855 125.247 0.901855H131.368C134.48 0.901855 137.003 3.41461 137.003 6.51424V14.4396C137.003 17.5392 134.48 20.052 131.368 20.052H125.247C122.135 20.052 119.612 17.5392 119.612 14.4396V6.51424Z" fill="#6D6D6D"/>
<path d="M119.612 49.3286C119.612 46.2289 122.135 43.7162 125.247 43.7162H131.368C134.48 43.7162 137.003 46.2289 137.003 49.3286V57.2539C137.003 60.3535 134.48 62.8663 131.368 62.8663H125.247C122.135 62.8663 119.612 60.3535 119.612 57.2539V49.3286Z" fill="#6D6D6D"/>
<path d="M119.612 92.1429C119.612 89.0433 122.135 86.5305 125.247 86.5305H131.368C134.48 86.5305 137.003 89.0433 137.003 92.1429V100.068C137.003 103.168 134.48 105.681 131.368 105.681H125.247C122.135 105.681 119.612 103.168 119.612 100.068V92.1429Z" fill="#6D6D6D"/>
<path d="M119.612 134.957C119.612 131.858 122.135 129.345 125.247 129.345H131.368C134.48 129.345 137.003 131.858 137.003 134.957V142.883C137.003 145.982 134.48 148.495 131.368 148.495H125.247C122.135 148.495 119.612 145.982 119.612 142.883V134.957Z" fill="#6D6D6D"/>
<path d="M119.613 27.9211C119.613 24.8215 122.135 22.3087 125.247 22.3087H131.368C134.48 22.3087 137.003 24.8215 137.003 27.9211V35.8465C137.003 38.9461 134.48 41.4588 131.368 41.4588H125.247C122.135 41.4588 119.613 38.9461 119.613 35.8465V27.9211Z" fill="#6D6D6D"/>
<path d="M119.613 70.7355C119.613 67.6358 122.135 65.1231 125.247 65.1231H131.368C134.48 65.1231 137.003 67.6358 137.003 70.7355V78.6608C137.003 81.7604 134.48 84.2732 131.368 84.2732H125.247C122.135 84.2732 119.613 81.7604 119.613 78.6608V70.7355Z" fill="#6D6D6D"/>
<path d="M119.613 113.55C119.613 110.45 122.135 107.937 125.247 107.937H131.368C134.48 107.937 137.003 110.45 137.003 113.55V121.475C137.003 124.575 134.48 127.088 131.368 127.088H125.247C122.135 127.088 119.613 124.575 119.613 121.475V113.55Z" fill="#6D6D6D"/>
<path d="M119.613 156.364C119.613 153.264 122.135 150.752 125.247 150.752H131.368C134.48 150.752 137.003 153.264 137.003 156.364V164.289C137.003 167.389 134.48 169.902 131.368 169.902H125.247C122.135 169.902 119.613 167.389 119.613 164.289V156.364Z" fill="#6D6D6D"/>
<path d="M20.6246 6.51424C20.6246 3.4146 23.1475 0.901855 26.2596 0.901855H32.3799C35.492 0.901855 38.0148 3.41461 38.0148 6.51424V14.4396C38.0148 17.5392 35.492 20.052 32.3799 20.052H26.2596C23.1475 20.052 20.6246 17.5392 20.6246 14.4396V6.51424Z" fill="#6D6D6D"/>
<path d="M20.6246 49.3286C20.6246 46.2289 23.1475 43.7162 26.2596 43.7162H32.3799C35.492 43.7162 38.0148 46.2289 38.0148 49.3286V57.2539C38.0148 60.3535 35.492 62.8663 32.3799 62.8663H26.2596C23.1475 62.8663 20.6246 60.3535 20.6246 57.2539V49.3286Z" fill="#6D6D6D"/>
<path d="M20.6246 92.1429C20.6246 89.0433 23.1475 86.5305 26.2596 86.5305H32.3799C35.492 86.5305 38.0148 89.0433 38.0148 92.1429V100.068C38.0148 103.168 35.492 105.681 32.3799 105.681H26.2596C23.1475 105.681 20.6246 103.168 20.6246 100.068V92.1429Z" fill="#6D6D6D"/>
<path d="M20.6246 134.957C20.6246 131.858 23.1475 129.345 26.2596 129.345H32.3799C35.492 129.345 38.0148 131.858 38.0148 134.957V142.883C38.0148 145.982 35.492 148.495 32.3799 148.495H26.2596C23.1475 148.495 20.6246 145.982 20.6246 142.883V134.957Z" fill="#6D6D6D"/>
<path d="M20.6249 27.9211C20.6249 24.8215 23.1477 22.3087 26.2598 22.3087H32.3801C35.4922 22.3087 38.0151 24.8215 38.0151 27.9211V35.8465C38.0151 38.9461 35.4922 41.4588 32.3801 41.4588H26.2599C23.1478 41.4588 20.6249 38.9461 20.6249 35.8465V27.9211Z" fill="#6D6D6D"/>
<path d="M20.6249 70.7355C20.6249 67.6358 23.1477 65.1231 26.2598 65.1231H32.3801C35.4922 65.1231 38.0151 67.6358 38.0151 70.7355V78.6608C38.0151 81.7604 35.4922 84.2732 32.3801 84.2732H26.2599C23.1478 84.2732 20.6249 81.7604 20.6249 78.6608V70.7355Z" fill="#6D6D6D"/>
<path d="M20.6249 113.55C20.6249 110.45 23.1477 107.937 26.2598 107.937H32.3801C35.4922 107.937 38.0151 110.45 38.0151 113.55V121.475C38.0151 124.575 35.4922 127.088 32.3801 127.088H26.2599C23.1478 127.088 20.6249 124.575 20.6249 121.475V113.55Z" fill="#6D6D6D"/>
<path d="M20.6249 156.364C20.6249 153.264 23.1477 150.752 26.2598 150.752H32.3801C35.4922 150.752 38.0151 153.264 38.0151 156.364V164.289C38.0151 167.389 35.4922 169.902 32.3801 169.902H26.2599C23.1478 169.902 20.6249 167.389 20.6249 164.289V156.364Z" fill="#6D6D6D"/>
<path d="M80.0241 6.51424C80.0241 3.4146 82.547 0.901855 85.6591 0.901855H91.7794C94.8915 0.901855 97.4143 3.41461 97.4143 6.51424V14.4396C97.4143 17.5392 94.8915 20.052 91.7794 20.052H85.6591C82.547 20.052 80.0241 17.5392 80.0241 14.4396V6.51424Z" fill="#6D6D6D"/>
<path d="M80.0241 49.3286C80.0241 46.2289 82.547 43.7162 85.6591 43.7162H91.7794C94.8915 43.7162 97.4143 46.2289 97.4143 49.3286V57.2539C97.4143 60.3535 94.8915 62.8663 91.7794 62.8663H85.6591C82.547 62.8663 80.0241 60.3535 80.0241 57.2539V49.3286Z" fill="#6D6D6D"/>
<path d="M80.0241 92.1429C80.0241 89.0433 82.547 86.5305 85.6591 86.5305H91.7794C94.8915 86.5305 97.4143 89.0433 97.4143 92.1429V100.068C97.4143 103.168 94.8915 105.681 91.7794 105.681H85.6591C82.547 105.681 80.0241 103.168 80.0241 100.068V92.1429Z" fill="#6D6D6D"/>
<path d="M80.0241 134.957C80.0241 131.858 82.547 129.345 85.6591 129.345H91.7794C94.8915 129.345 97.4143 131.858 97.4143 134.957V142.883C97.4143 145.982 94.8915 148.495 91.7794 148.495H85.6591C82.547 148.495 80.0241 145.982 80.0241 142.883V134.957Z" fill="#6D6D6D"/>
<path d="M80.0243 27.9211C80.0243 24.8215 82.5472 22.3087 85.6593 22.3087H91.7796C94.8917 22.3087 97.4145 24.8215 97.4145 27.9211V35.8465C97.4145 38.9461 94.8917 41.4588 91.7796 41.4588H85.6593C82.5472 41.4588 80.0243 38.9461 80.0243 35.8465V27.9211Z" fill="#6D6D6D"/>
<path d="M80.0243 70.7355C80.0243 67.6358 82.5472 65.1231 85.6593 65.1231H91.7796C94.8917 65.1231 97.4145 67.6358 97.4145 70.7355V78.6608C97.4145 81.7604 94.8917 84.2732 91.7796 84.2732H85.6593C82.5472 84.2732 80.0243 81.7604 80.0243 78.6608V70.7355Z" fill="#6D6D6D"/>
<path d="M80.0243 113.55C80.0243 110.45 82.5472 107.937 85.6593 107.937H91.7796C94.8917 107.937 97.4145 110.45 97.4145 113.55V121.475C97.4145 124.575 94.8917 127.088 91.7796 127.088H85.6593C82.5472 127.088 80.0243 124.575 80.0243 121.475V113.55Z" fill="#6D6D6D"/>
<path d="M80.0243 156.364C80.0243 153.264 82.5472 150.752 85.6593 150.752H91.7796C94.8917 150.752 97.4145 153.264 97.4145 156.364V164.289C97.4145 167.389 94.8917 169.902 91.7796 169.902H85.6593C82.5472 169.902 80.0243 167.389 80.0243 164.289V156.364Z" fill="#6D6D6D"/>
<path d="M139.423 6.51424C139.423 3.4146 141.946 0.901855 145.058 0.901855H151.178C154.291 0.901855 156.813 3.41461 156.813 6.51424V14.4396C156.813 17.5392 154.291 20.052 151.178 20.052H145.058C141.946 20.052 139.423 17.5392 139.423 14.4396V6.51424Z" fill="#6D6D6D"/>
<path d="M139.423 49.3286C139.423 46.2289 141.946 43.7162 145.058 43.7162H151.178C154.291 43.7162 156.813 46.2289 156.813 49.3286V57.2539C156.813 60.3535 154.291 62.8663 151.178 62.8663H145.058C141.946 62.8663 139.423 60.3535 139.423 57.2539V49.3286Z" fill="#6D6D6D"/>
<path d="M139.423 92.1429C139.423 89.0433 141.946 86.5305 145.058 86.5305H151.178C154.291 86.5305 156.813 89.0433 156.813 92.1429V100.068C156.813 103.168 154.291 105.681 151.178 105.681H145.058C141.946 105.681 139.423 103.168 139.423 100.068V92.1429Z" fill="#6D6D6D"/>
<path d="M139.423 134.957C139.423 131.858 141.946 129.345 145.058 129.345H151.178C154.291 129.345 156.813 131.858 156.813 134.957V142.883C156.813 145.982 154.291 148.495 151.178 148.495H145.058C141.946 148.495 139.423 145.982 139.423 142.883V134.957Z" fill="#6D6D6D"/>
<path d="M139.423 27.9211C139.423 24.8215 141.946 22.3087 145.058 22.3087H151.179C154.291 22.3087 156.814 24.8215 156.814 27.9211V35.8465C156.814 38.9461 154.291 41.4588 151.179 41.4588H145.058C141.946 41.4588 139.423 38.9461 139.423 35.8465V27.9211Z" fill="#6D6D6D"/>
<path d="M139.423 70.7355C139.423 67.6358 141.946 65.1231 145.058 65.1231H151.179C154.291 65.1231 156.814 67.6358 156.814 70.7355V78.6608C156.814 81.7604 154.291 84.2732 151.179 84.2732H145.058C141.946 84.2732 139.423 81.7604 139.423 78.6608V70.7355Z" fill="#6D6D6D"/>
<path d="M139.423 113.55C139.423 110.45 141.946 107.937 145.058 107.937H151.179C154.291 107.937 156.814 110.45 156.814 113.55V121.475C156.814 124.575 154.291 127.088 151.179 127.088H145.058C141.946 127.088 139.423 124.575 139.423 121.475V113.55Z" fill="#6D6D6D"/>
<path d="M139.423 156.364C139.423 153.264 141.946 150.752 145.058 150.752H151.179C154.291 150.752 156.814 153.264 156.814 156.364V164.289C156.814 167.389 154.291 169.902 151.179 169.902H145.058C141.946 169.902 139.423 167.389 139.423 164.289V156.364Z" fill="#6D6D6D"/>
<path d="M40.4355 6.51424C40.4355 3.4146 42.9584 0.901855 46.0705 0.901855H52.1908C55.3029 0.901855 57.8257 3.41461 57.8257 6.51424V14.4396C57.8257 17.5392 55.3029 20.052 52.1908 20.052H46.0705C42.9584 20.052 40.4355 17.5392 40.4355 14.4396V6.51424Z" fill="#6D6D6D"/>
<path d="M40.4355 49.3286C40.4355 46.2289 42.9584 43.7162 46.0705 43.7162H52.1908C55.3029 43.7162 57.8257 46.2289 57.8257 49.3286V57.2539C57.8257 60.3535 55.3029 62.8663 52.1908 62.8663H46.0705C42.9584 62.8663 40.4355 60.3535 40.4355 57.2539V49.3286Z" fill="#6D6D6D"/>
<path d="M40.4355 92.1429C40.4355 89.0433 42.9584 86.5305 46.0705 86.5305H52.1908C55.3029 86.5305 57.8257 89.0433 57.8257 92.1429V100.068C57.8257 103.168 55.3029 105.681 52.1908 105.681H46.0705C42.9584 105.681 40.4355 103.168 40.4355 100.068V92.1429Z" fill="#6D6D6D"/>
<path d="M40.4355 134.957C40.4355 131.858 42.9584 129.345 46.0705 129.345H52.1908C55.3029 129.345 57.8257 131.858 57.8257 134.957V142.883C57.8257 145.982 55.3029 148.495 52.1908 148.495H46.0705C42.9584 148.495 40.4355 145.982 40.4355 142.883V134.957Z" fill="#6D6D6D"/>
<path d="M40.4357 27.9211C40.4357 24.8215 42.9586 22.3087 46.0707 22.3087H52.191C55.3031 22.3087 57.8259 24.8215 57.8259 27.9211V35.8465C57.8259 38.9461 55.3031 41.4588 52.191 41.4588H46.0707C42.9586 41.4588 40.4357 38.9461 40.4357 35.8465V27.9211Z" fill="#6D6D6D"/>
<path d="M40.4357 70.7355C40.4357 67.6358 42.9586 65.1231 46.0707 65.1231H52.191C55.3031 65.1231 57.8259 67.6358 57.8259 70.7355V78.6608C57.8259 81.7604 55.3031 84.2732 52.191 84.2732H46.0707C42.9586 84.2732 40.4357 81.7604 40.4357 78.6608V70.7355Z" fill="#6D6D6D"/>
<path d="M40.4357 113.55C40.4357 110.45 42.9586 107.937 46.0707 107.937H52.191C55.3031 107.937 57.8259 110.45 57.8259 113.55V121.475C57.8259 124.575 55.3031 127.088 52.191 127.088H46.0707C42.9586 127.088 40.4357 124.575 40.4357 121.475V113.55Z" fill="#6D6D6D"/>
<path d="M40.4357 156.364C40.4357 153.264 42.9586 150.752 46.0707 150.752H52.191C55.3031 150.752 57.8259 153.264 57.8259 156.364V164.289C57.8259 167.389 55.3031 169.902 52.191 169.902H46.0707C42.9586 169.902 40.4357 167.389 40.4357 164.289V156.364Z" fill="#6D6D6D"/>
<path d="M99.8349 6.51424C99.8349 3.4146 102.358 0.901855 105.47 0.901855H111.59C114.702 0.901855 117.225 3.41461 117.225 6.51424V14.4396C117.225 17.5392 114.702 20.052 111.59 20.052H105.47C102.358 20.052 99.8349 17.5392 99.8349 14.4396V6.51424Z" fill="#6D6D6D"/>
<path d="M99.8349 49.3286C99.8349 46.2289 102.358 43.7162 105.47 43.7162H111.59C114.702 43.7162 117.225 46.2289 117.225 49.3286V57.2539C117.225 60.3535 114.702 62.8663 111.59 62.8663H105.47C102.358 62.8663 99.8349 60.3535 99.8349 57.2539V49.3286Z" fill="#6D6D6D"/>
<path d="M99.8349 92.1429C99.8349 89.0433 102.358 86.5305 105.47 86.5305H111.59C114.702 86.5305 117.225 89.0433 117.225 92.1429V100.068C117.225 103.168 114.702 105.681 111.59 105.681H105.47C102.358 105.681 99.8349 103.168 99.8349 100.068V92.1429Z" fill="#6D6D6D"/>
<path d="M99.8349 134.957C99.8349 131.858 102.358 129.345 105.47 129.345H111.59C114.702 129.345 117.225 131.858 117.225 134.957V142.883C117.225 145.982 114.702 148.495 111.59 148.495H105.47C102.358 148.495 99.8349 145.982 99.8349 142.883V134.957Z" fill="#6D6D6D"/>
<path d="M99.8351 27.9211C99.8351 24.8215 102.358 22.3087 105.47 22.3087H111.59C114.702 22.3087 117.225 24.8215 117.225 27.9211V35.8465C117.225 38.9461 114.703 41.4588 111.59 41.4588H105.47C102.358 41.4588 99.8351 38.9461 99.8351 35.8465V27.9211Z" fill="#6D6D6D"/>
<path d="M99.8351 70.7355C99.8351 67.6358 102.358 65.1231 105.47 65.1231H111.59C114.702 65.1231 117.225 67.6358 117.225 70.7355V78.6608C117.225 81.7604 114.703 84.2732 111.59 84.2732H105.47C102.358 84.2732 99.8351 81.7604 99.8351 78.6608V70.7355Z" fill="#6D6D6D"/>
<path d="M99.8351 113.55C99.8351 110.45 102.358 107.937 105.47 107.937H111.59C114.702 107.937 117.225 110.45 117.225 113.55V121.475C117.225 124.575 114.703 127.088 111.59 127.088H105.47C102.358 127.088 99.8351 124.575 99.8351 121.475V113.55Z" fill="#6D6D6D"/>
<path d="M99.8351 156.364C99.8351 153.264 102.358 150.752 105.47 150.752H111.59C114.702 150.752 117.225 153.264 117.225 156.364V164.289C117.225 167.389 114.703 169.902 111.59 169.902H105.47C102.358 169.902 99.8351 167.389 99.8351 164.289V156.364Z" fill="#6D6D6D"/>
</svg>
