<svg width="157" height="169" viewBox="0 0 157 169" fill="none" xmlns="http://www.w3.org/2000/svg">
<rect x="0.813721" width="35.3135" height="38.9498" rx="5" fill="#6D6D6D"/>
<rect x="0.813721" y="43.3503" width="35.3135" height="38.9498" rx="5" fill="#6D6D6D"/>
<rect x="0.813721" y="86.7004" width="35.3135" height="38.9498" rx="5" fill="#6D6D6D"/>
<rect x="41.0427" width="35.3135" height="38.9498" rx="5" fill="#6D6D6D"/>
<rect x="41.0427" y="43.3503" width="35.3135" height="38.9498" rx="5" fill="#6D6D6D"/>
<rect x="41.0427" y="86.7004" width="35.3135" height="38.9498" rx="5" fill="#6D6D6D"/>
<rect x="81.2717" width="35.3135" height="38.9498" rx="5" fill="#6D6D6D"/>
<rect x="121.5" width="35.3135" height="38.9498" rx="5" fill="#6D6D6D"/>
<rect x="121.5" y="43.3503" width="35.3135" height="38.9498" rx="5" fill="#6D6D6D"/>
<rect x="121.5" y="86.7003" width="35.3135" height="38.9498" rx="5" fill="#6D6D6D"/>
<rect x="121.5" y="130.05" width="35.3135" height="38.9498" rx="5" fill="#6D6D6D"/>
<rect x="81.2717" y="130.05" width="35.3135" height="38.9498" rx="5" fill="#6D6D6D"/>
<rect x="41.0427" y="130.05" width="35.3135" height="38.9498" rx="5" fill="#6D6D6D"/>
<rect x="0.813721" y="130.05" width="35.3135" height="38.9498" rx="5" fill="#6D6D6D"/>
<rect x="81.2717" y="43.3503" width="35.3135" height="38.9498" rx="5" fill="#6D6D6D"/>
<rect x="81.2717" y="86.7004" width="35.3135" height="38.9498" rx="5" fill="#6D6D6D"/>
</svg>
